%TF.GenerationSoftware,KiCad,Pcbnew,6.0.11+dfsg-1~bpo11+1*%
%TF.CreationDate,2023-06-11T11:27:35+01:00*%
%TF.ProjectId,ttp223_breakout,74747032-3233-45f6-9272-65616b6f7574,rev?*%
%TF.SameCoordinates,Original*%
%TF.FileFunction,Copper,L1,Top*%
%TF.FilePolarity,Positive*%
%FSLAX46Y46*%
G04 Gerber Fmt 4.6, Leading zero omitted, Abs format (unit mm)*
G04 Created by KiCad (PCBNEW 6.0.11+dfsg-1~bpo11+1) date 2023-06-11 11:27:35*
%MOMM*%
%LPD*%
G01*
G04 APERTURE LIST*
G04 Aperture macros list*
%AMRoundRect*
0 Rectangle with rounded corners*
0 $1 Rounding radius*
0 $2 $3 $4 $5 $6 $7 $8 $9 X,Y pos of 4 corners*
0 Add a 4 corners polygon primitive as box body*
4,1,4,$2,$3,$4,$5,$6,$7,$8,$9,$2,$3,0*
0 Add four circle primitives for the rounded corners*
1,1,$1+$1,$2,$3*
1,1,$1+$1,$4,$5*
1,1,$1+$1,$6,$7*
1,1,$1+$1,$8,$9*
0 Add four rect primitives between the rounded corners*
20,1,$1+$1,$2,$3,$4,$5,0*
20,1,$1+$1,$4,$5,$6,$7,0*
20,1,$1+$1,$6,$7,$8,$9,0*
20,1,$1+$1,$8,$9,$2,$3,0*%
G04 Aperture macros list end*
%TA.AperFunction,ComponentPad*%
%ADD10O,1.600000X1.000000*%
%TD*%
%TA.AperFunction,SMDPad,CuDef*%
%ADD11R,1.560000X0.650000*%
%TD*%
%TA.AperFunction,ComponentPad*%
%ADD12C,1.500000*%
%TD*%
%TA.AperFunction,SMDPad,CuDef*%
%ADD13RoundRect,0.237500X0.237500X-0.300000X0.237500X0.300000X-0.237500X0.300000X-0.237500X-0.300000X0*%
%TD*%
%TA.AperFunction,ViaPad*%
%ADD14C,0.800000*%
%TD*%
%TA.AperFunction,Conductor*%
%ADD15C,0.250000*%
%TD*%
G04 APERTURE END LIST*
D10*
%TO.P,U1,1,GND*%
%TO.N,Net-(C1-Pad2)*%
X135110000Y-83050000D03*
%TO.P,U1,2,VCC*%
%TO.N,Net-(U1-Pad2)*%
X137650000Y-83050000D03*
%TD*%
D11*
%TO.P,U3,1,Q*%
%TO.N,Net-(U1-Pad2)*%
X134850000Y-79150000D03*
%TO.P,U3,2,VSS*%
%TO.N,Net-(C1-Pad2)*%
X134850000Y-80100000D03*
%TO.P,U3,3,I*%
%TO.N,Net-(C1-Pad1)*%
X134850000Y-81050000D03*
%TO.P,U3,4,AHLB*%
%TO.N,unconnected-(U3-Pad4)*%
X137550000Y-81050000D03*
%TO.P,U3,5,VDD*%
%TO.N,Net-(U2-Pad2)*%
X137550000Y-80100000D03*
%TO.P,U3,6,TOG*%
X137550000Y-79150000D03*
%TD*%
D10*
%TO.P,U2,1,GND*%
%TO.N,Net-(C1-Pad2)*%
X135100000Y-76850000D03*
%TO.P,U2,2,VCC*%
%TO.N,Net-(U2-Pad2)*%
X137640000Y-76850000D03*
%TD*%
D12*
%TO.P,TP1,1,1*%
%TO.N,Net-(C1-Pad1)*%
X132700000Y-81139840D03*
%TD*%
D13*
%TO.P,C1,1*%
%TO.N,Net-(C1-Pad1)*%
X132750000Y-78925000D03*
%TO.P,C1,2*%
%TO.N,Net-(C1-Pad2)*%
X132750000Y-77200000D03*
%TD*%
D14*
%TO.N,Net-(U1-Pad2)*%
X134497179Y-78001880D03*
%TD*%
D15*
%TO.N,Net-(C1-Pad1)*%
X134760160Y-81139840D02*
X134850000Y-81050000D01*
X132750000Y-78925000D02*
X132750000Y-81089840D01*
X132700000Y-81139840D02*
X134760160Y-81139840D01*
X132750000Y-81089840D02*
X132700000Y-81139840D01*
%TO.N,Net-(C1-Pad2)*%
X136300000Y-81355000D02*
X135110000Y-82545000D01*
X136200000Y-80100000D02*
X136300000Y-80000000D01*
X134750000Y-77200000D02*
X135100000Y-76850000D01*
X136300000Y-80000000D02*
X136300000Y-80250000D01*
X135250000Y-76850000D02*
X136350000Y-77950000D01*
X135100000Y-76850000D02*
X135250000Y-76850000D01*
X135110000Y-82545000D02*
X135110000Y-83050000D01*
X136350000Y-77950000D02*
X136350000Y-80200000D01*
X132750000Y-77200000D02*
X134750000Y-77200000D01*
X136350000Y-80200000D02*
X136300000Y-80250000D01*
X136300000Y-80250000D02*
X136300000Y-81355000D01*
X134850000Y-80100000D02*
X136200000Y-80100000D01*
%TO.N,Net-(U1-Pad2)*%
X134497179Y-78797179D02*
X134850000Y-79150000D01*
X134497179Y-78001880D02*
X134497179Y-78797179D01*
%TO.N,Net-(U2-Pad2)*%
X138900000Y-78110000D02*
X138900000Y-79500000D01*
X137550000Y-79150000D02*
X137550000Y-80100000D01*
X137640000Y-76850000D02*
X138900000Y-78110000D01*
X138900000Y-79500000D02*
X138300000Y-80100000D01*
X138300000Y-80100000D02*
X137550000Y-80100000D01*
%TD*%
M02*
