%TF.GenerationSoftware,KiCad,Pcbnew,6.0.11+dfsg-1~bpo11+1*%
%TF.CreationDate,2023-05-08T20:11:07+01:00*%
%TF.ProjectId,gameboy_camera_flash,67616d65-626f-4795-9f63-616d6572615f,rev?*%
%TF.SameCoordinates,Original*%
%TF.FileFunction,Legend,Top*%
%TF.FilePolarity,Positive*%
%FSLAX46Y46*%
G04 Gerber Fmt 4.6, Leading zero omitted, Abs format (unit mm)*
G04 Created by KiCad (PCBNEW 6.0.11+dfsg-1~bpo11+1) date 2023-05-08 20:11:07*
%MOMM*%
%LPD*%
G01*
G04 APERTURE LIST*
%ADD10C,0.120000*%
G04 APERTURE END LIST*
D10*
%TO.C,D7*%
X129454038Y-85085409D02*
X131193521Y-83345926D01*
X130154074Y-82306479D02*
X128414591Y-84045962D01*
X131193521Y-83345926D02*
X130154074Y-82306479D01*
%TO.C,D6*%
X129642169Y-79385198D02*
X131914912Y-78443797D01*
X131352368Y-77085694D02*
X129079624Y-78027095D01*
X131914912Y-78443797D02*
X131352368Y-77085694D01*
%TO.C,D5*%
X127272905Y-75620376D02*
X128214306Y-73347632D01*
X126856203Y-72785088D02*
X125914802Y-75057831D01*
X128214306Y-73347632D02*
X126856203Y-72785088D01*
%TO.C,D4*%
X116427208Y-82287761D02*
X115387761Y-83327208D01*
X115387761Y-83327208D02*
X117127244Y-85066691D01*
X118166691Y-84027244D02*
X116427208Y-82287761D01*
%TO.C,D3*%
X117511981Y-77992247D02*
X115239237Y-77050846D01*
X114676693Y-78408949D02*
X116949436Y-79350350D01*
X115239237Y-77050846D02*
X114676693Y-78408949D01*
%TO.C,D2*%
X120785198Y-75057831D02*
X119843797Y-72785088D01*
X118485694Y-73347632D02*
X119427095Y-75620376D01*
X119843797Y-72785088D02*
X118485694Y-73347632D01*
%TO.C,D1*%
X124035000Y-74725000D02*
X124035000Y-72265000D01*
X122565000Y-72265000D02*
X122565000Y-74725000D01*
X124035000Y-72265000D02*
X122565000Y-72265000D01*
%TD*%
M02*
